<mxfile host="app.diagrams.net" modified="2023-10-03T15:12:48.987Z" agent="Mozilla/5.0 (Windows NT 10.0; Win64; x64; rv:109.0) Gecko/20100101 Firefox/118.0" etag="5YcAtOTQmZSzI-HogSvS" version="22.0.2" type="device">
  <diagram name="Page-1" id="etn5i6VIV66c8-nsoLar">
    <mxGraphModel dx="2268" dy="831" grid="1" gridSize="10" guides="1" tooltips="1" connect="1" arrows="1" fold="1" page="1" pageScale="1" pageWidth="850" pageHeight="1100" math="0" shadow="0">
      <root>
        <mxCell id="0" />
        <mxCell id="1" parent="0" />
        <mxCell id="OAUkeXZ-mKP1O48d7Twm-3" value="" style="rounded=1;whiteSpace=wrap;html=1;fontSize=16;fillColor=#dae8fc;strokeColor=#6c8ebf;" vertex="1" parent="1">
          <mxGeometry x="440" width="360" height="460" as="geometry" />
        </mxCell>
        <mxCell id="OAUkeXZ-mKP1O48d7Twm-2" value="" style="rounded=1;whiteSpace=wrap;html=1;fontSize=16;fillColor=#e1d5e7;strokeColor=#9673a6;" vertex="1" parent="1">
          <mxGeometry x="80" width="320" height="460" as="geometry" />
        </mxCell>
        <mxCell id="OAUkeXZ-mKP1O48d7Twm-1" value="`" style="rounded=1;whiteSpace=wrap;html=1;fontSize=16;fillColor=#FFCCFF;strokeColor=#FF66FF;" vertex="1" parent="1">
          <mxGeometry x="-190" y="230" width="240" height="230" as="geometry" />
        </mxCell>
        <mxCell id="yQuQGjG0GcNYd4D7degf-17" style="edgeStyle=none;curved=1;rounded=0;orthogonalLoop=1;jettySize=auto;html=1;fontSize=12;startSize=16;endSize=16;strokeColor=default;startArrow=diamondThin;startFill=1;endArrow=none;endFill=0;" parent="1" source="yQuQGjG0GcNYd4D7degf-8" target="yQuQGjG0GcNYd4D7degf-12" edge="1">
          <mxGeometry relative="1" as="geometry" />
        </mxCell>
        <mxCell id="yQuQGjG0GcNYd4D7degf-8" value="tasks_controller.py" style="swimlane;fontStyle=1;align=center;verticalAlign=top;childLayout=stackLayout;horizontal=1;startSize=26;horizontalStack=0;resizeParent=1;resizeParentMax=0;resizeLast=0;collapsible=1;marginBottom=0;whiteSpace=wrap;html=1;fontSize=16;swimlaneFillColor=default;" parent="1" vertex="1">
          <mxGeometry x="100" y="65" width="280" height="160" as="geometry" />
        </mxCell>
        <mxCell id="yQuQGjG0GcNYd4D7degf-9" value="+ tasks_db: TaskDB" style="text;strokeColor=none;fillColor=none;align=left;verticalAlign=top;spacingLeft=4;spacingRight=4;overflow=hidden;rotatable=0;points=[[0,0.5],[1,0.5]];portConstraint=eastwest;whiteSpace=wrap;html=1;fontSize=16;" parent="yQuQGjG0GcNYd4D7degf-8" vertex="1">
          <mxGeometry y="26" width="280" height="26" as="geometry" />
        </mxCell>
        <mxCell id="yQuQGjG0GcNYd4D7degf-10" value="" style="line;strokeWidth=1;fillColor=none;align=left;verticalAlign=middle;spacingTop=-1;spacingLeft=3;spacingRight=3;rotatable=0;labelPosition=right;points=[];portConstraint=eastwest;strokeColor=inherit;fontSize=16;" parent="yQuQGjG0GcNYd4D7degf-8" vertex="1">
          <mxGeometry y="52" width="280" height="8" as="geometry" />
        </mxCell>
        <mxCell id="yQuQGjG0GcNYd4D7degf-11" value="&lt;div&gt;+ show_index(): Str &lt;/div&gt;+ create_task(): Str &lt;div&gt;+ get_task(Int task_id): Str &lt;/div&gt;+ delete_task(Int task_id): Str " style="text;strokeColor=none;fillColor=none;align=left;verticalAlign=top;spacingLeft=4;spacingRight=4;overflow=hidden;rotatable=0;points=[[0,0.5],[1,0.5]];portConstraint=eastwest;whiteSpace=wrap;html=1;fontSize=16;" parent="yQuQGjG0GcNYd4D7degf-8" vertex="1">
          <mxGeometry y="60" width="280" height="100" as="geometry" />
        </mxCell>
        <mxCell id="yQuQGjG0GcNYd4D7degf-22" style="edgeStyle=none;curved=1;rounded=0;orthogonalLoop=1;jettySize=auto;html=1;fontSize=12;startSize=16;endSize=16;endArrow=none;endFill=0;startArrow=diamondThin;startFill=0;" parent="1" source="yQuQGjG0GcNYd4D7degf-12" target="yQuQGjG0GcNYd4D7degf-18" edge="1">
          <mxGeometry relative="1" as="geometry" />
        </mxCell>
        <mxCell id="yQuQGjG0GcNYd4D7degf-12" value="TasksDB" style="swimlane;fontStyle=1;align=center;verticalAlign=top;childLayout=stackLayout;horizontal=1;startSize=26;horizontalStack=0;resizeParent=1;resizeParentMax=0;resizeLast=0;collapsible=1;marginBottom=0;whiteSpace=wrap;html=1;fontSize=16;swimlaneFillColor=default;" parent="1" vertex="1">
          <mxGeometry x="480" y="60" width="280" height="170" as="geometry" />
        </mxCell>
        <mxCell id="yQuQGjG0GcNYd4D7degf-13" value="+ Tasks: Task [ ]" style="text;strokeColor=none;fillColor=none;align=left;verticalAlign=top;spacingLeft=4;spacingRight=4;overflow=hidden;rotatable=0;points=[[0,0.5],[1,0.5]];portConstraint=eastwest;whiteSpace=wrap;html=1;fontSize=16;" parent="yQuQGjG0GcNYd4D7degf-12" vertex="1">
          <mxGeometry y="26" width="280" height="26" as="geometry" />
        </mxCell>
        <mxCell id="yQuQGjG0GcNYd4D7degf-14" value="" style="line;strokeWidth=1;fillColor=none;align=left;verticalAlign=middle;spacingTop=-1;spacingLeft=3;spacingRight=3;rotatable=0;labelPosition=right;points=[];portConstraint=eastwest;strokeColor=inherit;fontSize=16;" parent="yQuQGjG0GcNYd4D7degf-12" vertex="1">
          <mxGeometry y="52" width="280" height="8" as="geometry" />
        </mxCell>
        <mxCell id="yQuQGjG0GcNYd4D7degf-15" value="&lt;div&gt;+ TaskDB(): TaskDB&lt;br&gt;&lt;/div&gt;&lt;div&gt;+ get_all_tasks(): Task [ ]&lt;/div&gt;&lt;div&gt;+ get_task(Int task_id): Task&lt;/div&gt;&lt;div&gt;&lt;div&gt;+ add_task(Task task): Task&lt;/div&gt;&lt;/div&gt;&lt;div&gt;+ delete_task(Int task_id): Task&lt;br&gt;&lt;/div&gt;" style="text;strokeColor=none;fillColor=none;align=left;verticalAlign=top;spacingLeft=4;spacingRight=4;overflow=hidden;rotatable=0;points=[[0,0.5],[1,0.5]];portConstraint=eastwest;whiteSpace=wrap;html=1;fontSize=16;" parent="yQuQGjG0GcNYd4D7degf-12" vertex="1">
          <mxGeometry y="60" width="280" height="110" as="geometry" />
        </mxCell>
        <mxCell id="yQuQGjG0GcNYd4D7degf-18" value="Task" style="swimlane;fontStyle=1;align=center;verticalAlign=top;childLayout=stackLayout;horizontal=1;startSize=26;horizontalStack=0;resizeParent=1;resizeParentMax=0;resizeLast=0;collapsible=1;marginBottom=0;whiteSpace=wrap;html=1;fontSize=16;swimlaneFillColor=default;" parent="1" vertex="1">
          <mxGeometry x="465" y="283" width="310" height="150" as="geometry" />
        </mxCell>
        <mxCell id="yQuQGjG0GcNYd4D7degf-19" value="&lt;div&gt;+ id: Int&lt;/div&gt;&lt;div&gt;+ title: Str&lt;/div&gt;&lt;div&gt;+ desc: Str&lt;/div&gt;&lt;div&gt;+ done: Bool&lt;br&gt;&lt;/div&gt;" style="text;strokeColor=none;fillColor=none;align=left;verticalAlign=top;spacingLeft=4;spacingRight=4;overflow=hidden;rotatable=0;points=[[0,0.5],[1,0.5]];portConstraint=eastwest;whiteSpace=wrap;html=1;fontSize=16;" parent="yQuQGjG0GcNYd4D7degf-18" vertex="1">
          <mxGeometry y="26" width="310" height="84" as="geometry" />
        </mxCell>
        <mxCell id="yQuQGjG0GcNYd4D7degf-20" value="" style="line;strokeWidth=1;fillColor=none;align=left;verticalAlign=middle;spacingTop=-1;spacingLeft=3;spacingRight=3;rotatable=0;labelPosition=right;points=[];portConstraint=eastwest;strokeColor=inherit;fontSize=16;" parent="yQuQGjG0GcNYd4D7degf-18" vertex="1">
          <mxGeometry y="110" width="310" height="8" as="geometry" />
        </mxCell>
        <mxCell id="yQuQGjG0GcNYd4D7degf-21" value="+ Task(Int id, Str title, Str desc, Bool done)" style="text;strokeColor=none;fillColor=none;align=left;verticalAlign=top;spacingLeft=4;spacingRight=4;overflow=hidden;rotatable=0;points=[[0,0.5],[1,0.5]];portConstraint=eastwest;whiteSpace=wrap;html=1;fontSize=16;" parent="yQuQGjG0GcNYd4D7degf-18" vertex="1">
          <mxGeometry y="118" width="310" height="32" as="geometry" />
        </mxCell>
        <mxCell id="yQuQGjG0GcNYd4D7degf-27" style="edgeStyle=none;curved=1;rounded=0;orthogonalLoop=1;jettySize=auto;html=1;fontSize=12;startSize=8;endSize=8;dashed=1;endArrow=open;endFill=0;" parent="1" source="yQuQGjG0GcNYd4D7degf-23" target="yQuQGjG0GcNYd4D7degf-8" edge="1">
          <mxGeometry relative="1" as="geometry" />
        </mxCell>
        <mxCell id="yQuQGjG0GcNYd4D7degf-23" value="&lt;div&gt;tasks_bp.py&lt;/div&gt;" style="swimlane;fontStyle=1;align=center;verticalAlign=top;childLayout=stackLayout;horizontal=1;startSize=26;horizontalStack=0;resizeParent=1;resizeParentMax=0;resizeLast=0;collapsible=1;marginBottom=0;whiteSpace=wrap;html=1;fontSize=16;swimlaneFillColor=default;" parent="1" vertex="1">
          <mxGeometry x="160" y="328" width="160" height="60" as="geometry" />
        </mxCell>
        <mxCell id="yQuQGjG0GcNYd4D7degf-24" value="+ tasks_controller" style="text;strokeColor=none;fillColor=none;align=left;verticalAlign=top;spacingLeft=4;spacingRight=4;overflow=hidden;rotatable=0;points=[[0,0.5],[1,0.5]];portConstraint=eastwest;whiteSpace=wrap;html=1;fontSize=16;" parent="yQuQGjG0GcNYd4D7degf-23" vertex="1">
          <mxGeometry y="26" width="160" height="26" as="geometry" />
        </mxCell>
        <mxCell id="yQuQGjG0GcNYd4D7degf-25" value="" style="line;strokeWidth=1;fillColor=none;align=left;verticalAlign=middle;spacingTop=-1;spacingLeft=3;spacingRight=3;rotatable=0;labelPosition=right;points=[];portConstraint=eastwest;strokeColor=inherit;fontSize=16;" parent="yQuQGjG0GcNYd4D7degf-23" vertex="1">
          <mxGeometry y="52" width="160" height="8" as="geometry" />
        </mxCell>
        <mxCell id="yQuQGjG0GcNYd4D7degf-36" style="edgeStyle=none;curved=1;rounded=0;orthogonalLoop=1;jettySize=auto;html=1;fontSize=12;startSize=8;endSize=8;dashed=1;endArrow=open;endFill=0;" parent="1" source="yQuQGjG0GcNYd4D7degf-31" target="yQuQGjG0GcNYd4D7degf-23" edge="1">
          <mxGeometry relative="1" as="geometry" />
        </mxCell>
        <mxCell id="yQuQGjG0GcNYd4D7degf-31" value="&lt;div&gt;script.js&lt;/div&gt;" style="swimlane;fontStyle=1;align=center;verticalAlign=top;childLayout=stackLayout;horizontal=1;startSize=26;horizontalStack=0;resizeParent=1;resizeParentMax=0;resizeLast=0;collapsible=1;marginBottom=0;whiteSpace=wrap;html=1;fontSize=16;gradientColor=none;swimlaneFillColor=default;" parent="1" vertex="1">
          <mxGeometry x="-170" y="283" width="200" height="150" as="geometry" />
        </mxCell>
        <mxCell id="yQuQGjG0GcNYd4D7degf-32" value="+ field: type" style="text;align=left;verticalAlign=top;spacingLeft=4;spacingRight=4;overflow=hidden;rotatable=0;points=[[0,0.5],[1,0.5]];portConstraint=eastwest;whiteSpace=wrap;html=1;fontSize=16;" parent="yQuQGjG0GcNYd4D7degf-31" vertex="1">
          <mxGeometry y="26" width="200" height="26" as="geometry" />
        </mxCell>
        <mxCell id="yQuQGjG0GcNYd4D7degf-33" value="" style="line;strokeWidth=1;fillColor=none;align=left;verticalAlign=middle;spacingTop=-1;spacingLeft=3;spacingRight=3;rotatable=0;labelPosition=right;points=[];portConstraint=eastwest;strokeColor=inherit;fontSize=16;" parent="yQuQGjG0GcNYd4D7degf-31" vertex="1">
          <mxGeometry y="52" width="200" height="8" as="geometry" />
        </mxCell>
        <mxCell id="yQuQGjG0GcNYd4D7degf-34" value="&lt;div&gt;+ getAllTasks(): void&lt;/div&gt;&lt;div&gt;+ getTaskById(): void&lt;br&gt;&lt;/div&gt;&lt;div&gt;+ createTask(): void&lt;/div&gt;&lt;div&gt;+ deleteTaskById: void&lt;br&gt;&lt;/div&gt;" style="text;strokeColor=none;fillColor=none;align=left;verticalAlign=top;spacingLeft=4;spacingRight=4;overflow=hidden;rotatable=0;points=[[0,0.5],[1,0.5]];portConstraint=eastwest;whiteSpace=wrap;html=1;fontSize=16;" parent="yQuQGjG0GcNYd4D7degf-31" vertex="1">
          <mxGeometry y="60" width="200" height="90" as="geometry" />
        </mxCell>
        <mxCell id="OAUkeXZ-mKP1O48d7Twm-5" value="View" style="text;html=1;align=center;verticalAlign=middle;resizable=0;points=[];autosize=1;strokeColor=none;fillColor=none;fontSize=32;fontFamily=Space Grotesk;fontSource=https%3A%2F%2Ffonts.googleapis.com%2Fcss%3Ffamily%3DSpace%2BGrotesk;" vertex="1" parent="1">
          <mxGeometry x="-120" y="230" width="100" height="50" as="geometry" />
        </mxCell>
        <mxCell id="OAUkeXZ-mKP1O48d7Twm-6" value="&lt;div&gt;Controller&lt;/div&gt;" style="text;html=1;align=center;verticalAlign=middle;resizable=0;points=[];autosize=1;strokeColor=none;fillColor=none;fontSize=32;fontFamily=Space Grotesk;fontSource=https%3A%2F%2Ffonts.googleapis.com%2Fcss%3Ffamily%3DSpace%2BGrotesk;" vertex="1" parent="1">
          <mxGeometry x="150" width="180" height="50" as="geometry" />
        </mxCell>
        <mxCell id="OAUkeXZ-mKP1O48d7Twm-7" value="Model" style="text;html=1;align=center;verticalAlign=middle;resizable=0;points=[];autosize=1;strokeColor=none;fillColor=none;fontSize=32;fontFamily=Space Grotesk;fontSource=https%3A%2F%2Ffonts.googleapis.com%2Fcss%3Ffamily%3DSpace%2BGrotesk;" vertex="1" parent="1">
          <mxGeometry x="560" width="120" height="50" as="geometry" />
        </mxCell>
        <mxCell id="OAUkeXZ-mKP1O48d7Twm-11" value="&lt;div style=&quot;font-size: 48px;&quot;&gt;MVC&lt;/div&gt;&lt;div style=&quot;font-size: 48px;&quot;&gt;&lt;span style=&quot;font-weight: normal;&quot;&gt;Pattern&lt;/span&gt;&lt;br style=&quot;font-size: 48px;&quot;&gt;&lt;/div&gt;&lt;div style=&quot;font-size: 20px;&quot;&gt;&lt;span style=&quot;font-weight: normal;&quot;&gt;&lt;font face=&quot;Fira Sans&quot;&gt;With Flask&lt;/font&gt;&lt;/span&gt;&lt;br&gt;&lt;/div&gt;" style="text;html=1;align=center;verticalAlign=middle;resizable=0;points=[];autosize=1;strokeColor=none;fillColor=none;fontSize=48;fontFamily=Space Grotesk;fontSource=https%3A%2F%2Ffonts.googleapis.com%2Fcss%3Ffamily%3DSpace%2BGrotesk;fontStyle=1" vertex="1" parent="1">
          <mxGeometry x="-165" y="40" width="190" height="150" as="geometry" />
        </mxCell>
      </root>
    </mxGraphModel>
  </diagram>
</mxfile>
